<svg xmlns="http://www.w3.org/2000/svg" version="1.1" xmlns:xlink="http://www.w3.org/1999/xlink" xmlns:svgjs="http://svgjs.dev/svgjs" width="1000" height="625" viewBox="0 0 1000 625"><g transform="matrix(1,0,0,1,0,0)"><svg viewBox="0 0 512 320" data-background-color="#7964b2" preserveAspectRatio="xMidYMid meet" height="625" width="1000" xmlns="http://www.w3.org/2000/svg" xmlns:xlink="http://www.w3.org/1999/xlink"><g id="tight-bounds" transform="matrix(1,0,0,1,0,0)"><svg viewBox="0 0 512 320" height="320" width="512"><g><svg></svg></g><g><svg viewBox="0 0 512 320" height="320" width="512"><g><path xmlns="http://www.w3.org/2000/svg" d="M96 160c0-88.366 71.634-160 160-160 88.366 0 160 71.634 160 160 0 88.366-71.634 160-160 160-88.366 0-160-71.634-160-160z" fill="#ffffff" fill-rule="nonzero" stroke="none" stroke-width="1" stroke-linecap="butt" stroke-linejoin="miter" stroke-miterlimit="10" stroke-dasharray="" stroke-dashoffset="0" font-family="none" font-weight="none" font-size="none" text-anchor="none" style="mix-blend-mode: normal" data-fill-palette-color="tertiary"></path></g><g transform="matrix(1,0,0,1,153.6,129.5158002471686)"><svg viewBox="0 0 204.8 60.96839950566275" height="60.96839950566275" width="204.8"><g><svg viewBox="0 0 303.46363651060676 90.34029407333935" height="60.96839950566275" width="204.8"><g transform="matrix(1,0,0,1,0,12.485525447183662)"><svg viewBox="0 0 204.8 65.36924317897203" height="65.36924317897203" width="204.8"><g id="textblocktransform"><svg viewBox="0 0 204.8 65.36924317897203" height="65.36924317897203" width="204.8" id="textblock"><g><svg viewBox="0 0 204.8 35.25704619388419" height="35.25704619388419" width="204.8"><g transform="matrix(1,0,0,1,0,0)"><svg width="204.8" viewBox="4.880000114440918 -32.43000030517578 192.11000061035156 33.08000183105469" height="35.25704619388419" data-palette-color="#7964b2"><path d="M4.88 0L4.88-31.85 9.63-31.85 9.63-18.13 24.58-18.13 24.58-31.85 29.3-31.85 29.3 0 24.58 0 24.58-14 9.63-14 9.63 0 4.88 0ZM50.75 0.65L50.75 0.65Q46.67 0.65 43.5-1.2 40.32-3.05 38.51-6.73 36.7-10.4 36.7-15.9L36.7-15.9Q36.7-21.5 38.51-25.16 40.32-28.83 43.5-30.63 46.67-32.43 50.75-32.43L50.75-32.43Q54.85-32.43 58.04-30.6 61.22-28.78 63.04-25.09 64.85-21.4 64.85-15.9L64.85-15.9Q64.85-10.35 63.04-6.66 61.22-2.98 58.04-1.16 54.85 0.65 50.75 0.65ZM50.75-3.7L50.75-3.7Q55-3.7 57.46-6.83 59.92-9.95 59.92-15.95L59.92-15.95Q59.92-21.8 57.46-24.99 55-28.18 50.75-28.18L50.75-28.18Q46.57-28.18 44.1-24.98 41.62-21.78 41.62-15.9L41.62-15.9Q41.62-9.95 44.1-6.83 46.57-3.7 50.75-3.7ZM82.77 0.65L82.77 0.65Q79.52 0.65 76.8-0.51 74.07-1.68 72.41-3.98 70.75-6.28 70.67-9.73L70.67-9.73 75.32-9.73Q75.32-7.65 76.33-6.33 77.35-5 79.02-4.36 80.7-3.73 82.72-3.73L82.72-3.73Q84.77-3.73 86.35-4.35 87.92-4.98 88.78-6.03 89.65-7.08 89.65-8.43L89.65-8.43Q89.65-10.25 88.52-11.36 87.4-12.48 85.1-13.25L85.1-13.25 79.17-15.45Q75.35-16.88 73.35-18.74 71.35-20.6 71.35-23.93L71.35-23.93Q71.35-27.7 74.3-30.06 77.25-32.43 82.6-32.43L82.6-32.43Q87.67-32.43 90.48-30.08 93.3-27.73 93.7-23.68L93.7-23.68 89.02-23.68Q88.67-25.73 87.11-26.93 85.55-28.13 82.6-28.13L82.6-28.13Q79.75-28.13 78.15-26.89 76.55-25.65 76.55-23.78L76.55-23.78Q76.55-22.23 77.56-21.3 78.57-20.38 80.72-19.63L80.72-19.63 87.47-17.15Q90.95-15.93 92.9-13.85 94.85-11.78 94.85-8.58L94.85-8.58Q94.85-5.88 93.45-3.8 92.05-1.73 89.35-0.54 86.65 0.65 82.77 0.65ZM113.69 0.65L113.69 0.65Q110.44 0.65 107.72-0.51 104.99-1.68 103.33-3.98 101.67-6.28 101.59-9.73L101.59-9.73 106.24-9.73Q106.24-7.65 107.26-6.33 108.27-5 109.94-4.36 111.62-3.73 113.64-3.73L113.64-3.73Q115.69-3.73 117.27-4.35 118.84-4.98 119.71-6.03 120.57-7.08 120.57-8.43L120.57-8.43Q120.57-10.25 119.44-11.36 118.32-12.48 116.02-13.25L116.02-13.25 110.09-15.45Q106.27-16.88 104.27-18.74 102.27-20.6 102.27-23.93L102.27-23.93Q102.27-27.7 105.22-30.06 108.17-32.43 113.52-32.43L113.52-32.43Q118.59-32.43 121.41-30.08 124.22-27.73 124.62-23.68L124.62-23.68 119.94-23.68Q119.59-25.73 118.03-26.93 116.47-28.13 113.52-28.13L113.52-28.13Q110.67-28.13 109.07-26.89 107.47-25.65 107.47-23.78L107.47-23.78Q107.47-22.23 108.48-21.3 109.49-20.38 111.64-19.63L111.64-19.63 118.39-17.15Q121.87-15.93 123.82-13.85 125.77-11.78 125.77-8.58L125.77-8.58Q125.77-5.88 124.37-3.8 122.97-1.73 120.27-0.54 117.57 0.65 113.69 0.65ZM135.37 0L130.37 0 141.27-31.85 147.14-31.85 157.72 0 152.72 0 150.24-7.6 137.94-7.6 135.37 0ZM144.12-26.13L139.14-11.25 149.07-11.25 144.12-26.13ZM163.81 0L163.81-31.85 170.64-31.85 180.74-10.93 180.29-10.93 190.39-31.85 196.99-31.85 196.99 0 192.19 0 192.19-26.63 192.96-26.63 182.06-3.78 178.94-3.78 168.09-26.5 168.56-26.5 168.56 0 163.81 0Z" opacity="1" transform="matrix(1,0,0,1,0,0)" fill="#7964b2" class="wordmark-text-0" data-fill-palette-color="quaternary" id="text-0"></path></svg></g></svg></g><g transform="matrix(1,0,0,1,137.685818009883,43.5803886311516)"><svg viewBox="0 0 67.114181990117 21.78885454782043" height="21.78885454782043" width="67.114181990117"><g transform="matrix(1,0,0,1,0,0)"><svg width="67.114181990117" viewBox="1.7000000476837158 -25.649999618530273 119.04000091552734 38.650001525878906" height="21.78885454782043" data-palette-color="#7964b2"><path d="M10.7 0.55Q8.15 0.55 5.95-0.35 3.75-1.25 1.7-3.15L1.7-3.15 2.9-4.6Q6.55-1.35 10.75-1.35L10.75-1.35Q13.6-1.35 15.45-2.8 17.3-4.25 17.3-6.7L17.3-6.7Q17.3-8.25 16.5-9.25 15.7-10.25 14.33-10.95 12.95-11.65 10.15-12.8L10.15-12.8Q7.55-13.85 6.15-14.6 4.75-15.35 3.88-16.53 3-17.7 3-19.45L3-19.45Q3-22.25 5.08-23.95 7.15-25.65 10.6-25.65L10.6-25.65Q13.8-25.65 16.55-23.9L16.55-23.9 15.55-22.3Q13.1-23.75 10.65-23.75L10.65-23.75Q8.2-23.75 6.68-22.55 5.15-21.35 5.15-19.45L5.15-19.45Q5.15-18.4 5.73-17.68 6.3-16.95 7.65-16.23 9-15.5 11.9-14.25L11.9-14.25Q14.9-12.95 16.35-12.1 17.8-11.25 18.63-10.05 19.45-8.85 19.45-6.95L19.45-6.95Q19.45-3.5 17.05-1.48 14.65 0.55 10.7 0.55L10.7 0.55ZM35.6-25.25Q39.05-25.25 41.45-23.55 43.85-21.85 45.05-18.98 46.25-16.1 46.25-12.55L46.25-12.55Q46.25-8.7 44.82-5.78 43.4-2.85 40.67-1.2 37.95 0.45 34.15 0.45L34.15 0.45Q32.15 0.45 27.7-0.15L27.7-0.15 27.7 13 25.6 13 25.6-18.05Q25.6-20.25 25.15-21.53 24.7-22.8 23.75-24L23.75-24 25.15-25.35Q26.2-24.35 26.87-23.05 27.55-21.75 27.65-20.35L27.65-20.35Q28.7-22.9 30.77-24.08 32.85-25.25 35.6-25.25L35.6-25.25ZM33.9-1.45Q38.85-1.45 41.5-4.42 44.15-7.4 44.15-12.25L44.15-12.25Q44.15-15.25 43.15-17.78 42.15-20.3 40.22-21.83 38.3-23.35 35.75-23.35L35.75-23.35Q33.8-23.35 32.02-22.48 30.25-21.6 29.05-20.03 27.85-18.45 27.7-16.45L27.7-16.45 27.7-1.95Q32.7-1.45 33.9-1.45L33.9-1.45ZM69.65 0.25Q68.55-0.65 68.07-1.63 67.59-2.6 67.05-4.4L67.05-4.4Q65.25 0.45 59.05 0.45L59.05 0.45Q55.05 0.45 52.85-1.55 50.65-3.55 50.65-7.15L50.65-7.15Q50.65-11 53.3-12.95 55.95-14.9 61.1-14.9L61.1-14.9 66.95-14.9 66.95-17.1Q66.95-20.45 65.59-21.98 64.25-23.5 61.15-23.5L61.15-23.5Q59.05-23.5 56.97-22.85 54.9-22.2 53.25-20.95L53.25-20.95 52.25-22.5Q56-25.5 61.2-25.5L61.2-25.5Q65.2-25.5 67.12-23.58 69.05-21.65 69.05-17.65L69.05-17.65 69.05-7.05Q69.05-3.15 70.9-1L70.9-1 69.65 0.25ZM59.1-1.45Q62.65-1.45 64.8-3.48 66.95-5.5 66.95-8.75L66.95-8.75 66.95-13 61.35-13Q56.8-13 54.77-11.6 52.75-10.2 52.75-7.2L52.75-7.2Q52.75-4.4 54.45-2.93 56.15-1.45 59.1-1.45L59.1-1.45ZM86.59 0.3Q81.19 0.3 78.17-2.98 75.14-6.25 75.14-12.1L75.14-12.1Q75.14-16.15 76.59-19.18 78.04-22.2 80.74-23.85 83.44-25.5 86.99-25.5L86.99-25.5Q90.99-25.5 93.89-22.75L93.89-22.75 92.54-21.4Q91.34-22.55 89.99-23.08 88.64-23.6 86.99-23.6L86.99-23.6Q84.14-23.6 81.92-22.13 79.69-20.65 78.47-18 77.24-15.35 77.24-11.95L77.24-11.95Q77.24-7.15 79.82-4.38 82.39-1.6 86.84-1.6L86.84-1.6Q88.69-1.6 90.62-2.18 92.54-2.75 94.79-4L94.79-4 95.74-2.45Q93.74-1.15 91.34-0.43 88.94 0.3 86.59 0.3L86.59 0.3ZM101.84-11.75Q101.84-8.05 103.67-4.73 105.49-1.4 110.99-1.4L110.99-1.4Q113.04-1.4 114.84-1.98 116.64-2.55 118.89-3.8L118.89-3.8 119.84-2.25Q117.89-0.95 115.54-0.23 113.19 0.5 110.69 0.5L110.69 0.5Q105.49 0.5 102.62-2.8 99.74-6.1 99.74-11.65L99.74-11.65Q99.74-15.6 101.09-18.7 102.44-21.8 104.92-23.53 107.39-25.25 110.74-25.25L110.74-25.25Q113.64-25.25 115.92-23.93 118.19-22.6 119.47-20.28 120.74-17.95 120.74-14.95L120.74-14.95Q120.74-14.05 120.54-11.75L120.54-11.75 101.84-11.75ZM101.94-13.65L118.54-13.65Q118.64-14.2 118.64-15.05L118.64-15.05Q118.64-17.45 117.57-19.38 116.49-21.3 114.69-22.38 112.89-23.45 110.74-23.45L110.74-23.45Q107.24-23.45 104.82-20.75 102.39-18.05 101.94-13.65L101.94-13.65Z" opacity="1" transform="matrix(1,0,0,1,0,0)" fill="#7964b2" class="slogan-text-1" data-fill-palette-color="quaternary" id="text-1"></path></svg></g></svg></g></svg></g></svg></g><g transform="matrix(1,0,0,1,213.1233424372674,0)"><svg viewBox="0 0 90.34029407333935 90.34029407333935" height="90.34029407333935" width="90.34029407333935"><g data-palette-color="#7964b2"><rect width="24.69301371337942" height="90.34029407333935" fill="#7964b2" stroke="transparent" data-fill-palette-color="quaternary" x="0" fill-opacity="1"></rect><rect width="24.69301371337942" height="90.34029407333935" fill="#7964b2" stroke="transparent" data-fill-palette-color="quaternary" x="30.11343135777978" fill-opacity="0.75"></rect><rect width="24.69301371337942" height="90.34029407333935" fill="#7964b2" stroke="transparent" data-fill-palette-color="quaternary" x="60.22686271555956" fill-opacity="0.5"></rect></g></svg></g></svg></g></svg></g></svg></g><defs></defs></svg><rect width="512" height="320" fill="none" stroke="none" visibility="hidden"></rect></g></svg></g></svg>